{
    "asset" : {
        "generator" : "Khronos glTF Blender I/O v1.7.33",
        "version" : "2.0"
    },
    "extensionsUsed" : [
        "KHR_lights_punctual"
    ],
    "extensionsRequired" : [
        "KHR_lights_punctual"
    ],
    "extensions" : {
        "KHR_lights_punctual" : {
            "lights" : [
                {
                    "color" : [
                        1,
                        1,
                        1
                    ],
                    "intensity" : 10,
                    "type" : "point",
                    "name" : "Point.008"
                }
            ]
        }
    },
    "scene" : 0,
    "scenes" : [
        {
            "extras" : {
                "MM" : {
                    "revision" : "51bf1c57280056de7e80d9d51336700c103328d7"
                },
                "uuid" : "e3cf6b02-35d3-4577-a012-d234f88405d3",
                "assets reported" : {}
            },
            "name" : "Scene",
            "nodes" : [
                1,
                3,
                5,
                7,
                8
            ]
        }
    ],
    "nodes" : [
        {
            "camera" : 0,
            "name" : "Camera_Orientation",
            "rotation" : [
                -0.7071067690849304,
                0,
                0,
                0.7071067690849304
            ]
        },
        {
            "children" : [
                0
            ],
            "extras" : {
                "MM" : {}
            },
            "name" : "Camera",
            "rotation" : [
                0.5001159310340881,
                0.49848473072052,
                -0.49869871139526367,
                0.5026894211769104
            ],
            "scale" : [
                2.618067502975464,
                2.618067741394043,
                2.618067741394043
            ],
            "translation" : [
                25.56391143798828,
                1.911886215209961,
                0.015543244779109955
            ]
        },
        {
            "extensions" : {
                "KHR_lights_punctual" : {
                    "light" : 0
                }
            },
            "name" : "Point.008_Orientation",
            "rotation" : [
                -0.7071067690849304,
                0,
                0,
                0.7071067690849304
            ]
        },
        {
            "children" : [
                2
            ],
            "extras" : {
                "MM" : {}
            },
            "name" : "Point.008",
            "translation" : [
                5.145245552062988,
                -1.615918755531311,
                -4.466290473937988
            ]
        },
        {
            "name" : "Object_6_6"
        },
        {
            "children" : [
                4
            ],
            "name" : "bakedInside_1_5",
            "rotation" : [
                -0.49074459075927734,
                0.5086624026298523,
                0.4827026128768921,
                0.5171368718147278
            ],
            "scale" : [
                0.001010099658742547,
                0.001010099658742547,
                0.001010101055726409
            ],
            "translation" : [
                0,
                0.10131916403770447,
                0
            ]
        },
        {
            "extras" : {
                "MM" : {}
            },
            "name" : "Object_4_4"
        },
        {
            "children" : [
                6
            ],
            "extras" : {
                "MM" : {}
            },
            "name" : "bakedOutside_0_3",
            "rotation" : [
                -0.49074459075927734,
                0.5086624026298523,
                0.4827026128768921,
                0.5171368718147278
            ],
            "scale" : [
                0.0010000001639127731,
                0.0010000000474974513,
                0.0010000000474974513
            ],
            "translation" : [
                0,
                0.10131916403770447,
                0
            ]
        },
        {
            "extras" : {
                "MM" : {}
            },
            "mesh" : 0,
            "name" : "texture sphere",
            "rotation" : [
                0.24442800879478455,
                0.6600439548492432,
                0.6745238900184631,
                -0.2227432280778885
            ],
            "scale" : [
                0.5293594002723694,
                0.5293594002723694,
                0.5293603539466858
            ],
            "translation" : [
                3.5537545680999756,
                -0.22022247314453125,
                -1.1935029029846191
            ]
        }
    ],
    "cameras" : [
        {
            "name" : "Camera",
            "perspective" : {
                "aspectRatio" : 1.7777777777777777,
                "yfov" : 0.39959652046304894,
                "zfar" : 100,
                "znear" : 0.10000000149011612
            },
            "type" : "perspective"
        }
    ],
    "materials" : [
        {
            "alphaMode" : "BLEND",
            "emissiveFactor" : [
                1,
                1,
                1
            ],
            "emissiveTexture" : {
                "index" : 0
            },
            "name" : "Sphere_material_1",
            "pbrMetallicRoughness" : {
                "baseColorTexture" : {
                    "index" : 1
                },
                "metallicFactor" : 0
            }
        }
    ],
    "meshes" : [
        {
            "name" : "Object_1",
            "primitives" : [
                {
                    "attributes" : {
                        "POSITION" : 0,
                        "NORMAL" : 1,
                        "TANGENT" : 2,
                        "TEXCOORD_0" : 3,
                        "TEXCOORD_1" : 4,
                        "TEXCOORD_2" : 5
                    },
                    "indices" : 6,
                    "material" : 0
                }
            ]
        }
    ],
    "textures" : [
        {
            "sampler" : 0,
            "source" : 0
        },
        {
            "sampler" : 0,
            "source" : 0
        }
    ],
    "images" : [
        {
            "mimeType" : "image/png",
            "name" : "equi",
            "uri" : "textures/equi.png"
        }
    ],
    "accessors" : [
        {
            "bufferView" : 0,
            "componentType" : 5126,
            "count" : 1395,
            "max" : [
                98.86432647705078,
                98.86432647705078,
                99
            ],
            "min" : [
                -98.86432647705078,
                -98.86432647705078,
                -99
            ],
            "type" : "VEC3"
        },
        {
            "bufferView" : 1,
            "componentType" : 5126,
            "count" : 1395,
            "type" : "VEC3"
        },
        {
            "bufferView" : 2,
            "componentType" : 5126,
            "count" : 1395,
            "type" : "VEC4"
        },
        {
            "bufferView" : 3,
            "componentType" : 5126,
            "count" : 1395,
            "type" : "VEC2"
        },
        {
            "bufferView" : 4,
            "componentType" : 5126,
            "count" : 1395,
            "type" : "VEC2"
        },
        {
            "bufferView" : 5,
            "componentType" : 5126,
            "count" : 1395,
            "type" : "VEC2"
        },
        {
            "bufferView" : 6,
            "componentType" : 5123,
            "count" : 7560,
            "type" : "SCALAR"
        }
    ],
    "bufferViews" : [
        {
            "buffer" : 0,
            "byteLength" : 16740,
            "byteOffset" : 0
        },
        {
            "buffer" : 0,
            "byteLength" : 16740,
            "byteOffset" : 16740
        },
        {
            "buffer" : 0,
            "byteLength" : 22320,
            "byteOffset" : 33480
        },
        {
            "buffer" : 0,
            "byteLength" : 11160,
            "byteOffset" : 55800
        },
        {
            "buffer" : 0,
            "byteLength" : 11160,
            "byteOffset" : 66960
        },
        {
            "buffer" : 0,
            "byteLength" : 11160,
            "byteOffset" : 78120
        },
        {
            "buffer" : 0,
            "byteLength" : 15120,
            "byteOffset" : 89280
        }
    ],
    "samplers" : [
        {
            "magFilter" : 9729,
            "minFilter" : 9987
        }
    ],
    "buffers" : [
        {
            "byteLength" : 104400,
            "uri" : "test.bin"
        }
    ]
}
